<svg width="23" height="23" viewBox="0 0 23 23" fill="none" xmlns="http://www.w3.org/2000/svg">
<path d="M15.8125 2.875C18.1942 2.875 20.125 4.80578 20.125 7.1875V15.8125C20.125 18.1943 18.1942 20.125 15.8125 20.125H12.2188C11.8218 20.125 11.5 19.8031 11.5 19.4062C11.5 19.0094 11.8218 18.6875 12.2188 18.6875H15.8125C17.4003 18.6875 18.6875 17.4004 18.6875 15.8125V7.1875C18.6875 5.59968 17.4003 4.3125 15.8125 4.3125L7.1875 4.3125C5.59964 4.3125 4.3125 5.59968 4.3125 7.1875V12.2188C4.3125 12.6157 3.99064 12.9375 3.59375 12.9375C3.19686 12.9375 2.875 12.6157 2.875 12.2188V7.1875C2.875 4.80578 4.80571 2.875 7.1875 2.875L15.8125 2.875Z" fill="#151515"/>
<path d="M14.375 9.35358C14.3775 9.16638 14.3074 8.97837 14.1645 8.83552C14.0882 8.75921 13.999 8.70365 13.9039 8.66883C13.8267 8.64047 13.7433 8.625 13.6562 8.625H7.90624C7.50935 8.625 7.18749 8.9468 7.18749 9.34375C7.18749 9.7407 7.50935 10.0625 7.90624 10.0625H11.9211L4.52309 17.4605C4.24234 17.7412 4.24234 18.1963 4.52309 18.477C4.80383 18.7577 5.2588 18.7577 5.53954 18.477L12.9375 11.079V15.0938C12.9375 15.4906 13.2593 15.8125 13.6562 15.8125C14.0532 15.8125 14.375 15.4906 14.375 15.0938V9.35358Z" fill="#151515"/>
</svg>
